<svg enable-background="new 0 0 160.22 44.72" viewBox="0 0 160.22 44.72" xmlns="http://www.w3.org/2000/svg"><path d="m18.42 29.06-1.35 10.96h-13.07l4.43-36.02h15.01c4.91 0 7.88.81 10.37 2.75 2.86 2.27 4.54 5.78 4.54 9.56 0 3.4-1.46 6.91-3.78 9.18-2.65 2.54-5.83 3.56-11.18 3.56h-4.97zm1.89-15.66-.81 6.7h1.19c3.29 0 4.97-1.3 4.97-3.83 0-2.11-1.03-2.86-4-2.86h-1.35z" fill="#fff"/><path d="m23.44 4c4.91 0 7.88.81 10.37 2.75 2.86 2.27 4.54 5.78 4.54 9.56 0 3.4-1.46 6.91-3.78 9.18-2.65 2.54-5.83 3.56-11.18 3.56h-4.97l-1.35 10.96h-13.07l4.43-36.01zm-3.94 16.09h1.19c3.29 0 4.97-1.3 4.97-3.83 0-2.11-1.03-2.86-4-2.86h-1.35zm3.94-20.09h-15.01c-2.02 0-3.73 1.51-3.97 3.51l-4.43 36.02c-.14 1.14.21 2.28.97 3.14s1.85 1.35 3 1.35h13.07c2.02 0 3.72-1.51 3.97-3.51l.92-7.45h1.43c6.36 0 10.53-1.4 13.95-4.68 3.15-3.08 5.01-7.58 5.01-12.07 0-5.02-2.21-9.65-6.05-12.69-3.25-2.54-7.09-3.62-12.86-3.62z" fill="#079447"/><path d="m72.15 26.84c0 7.94-6.75 13.88-15.66 13.88-9.13 0-15.77-5.67-15.77-13.45 0-7.99 6.7-13.88 15.71-13.88 9.45.01 15.72 5.35 15.72 13.45zm-12.37 0c0-2.05-1.35-3.56-3.13-3.56-1.94 0-3.56 1.84-3.56 4.05 0 2.05 1.35 3.56 3.24 3.56 1.99 0 3.45-1.73 3.45-4.05z" fill="#fff"/><path d="m56.43 13.4c9.45 0 15.71 5.35 15.71 13.45 0 7.94-6.75 13.88-15.66 13.88-9.13 0-15.77-5.67-15.77-13.45.01-8 6.71-13.88 15.72-13.88m-.1 17.49c2 0 3.46-1.73 3.46-4.05 0-2.05-1.35-3.56-3.13-3.56-1.94 0-3.56 1.84-3.56 4.05-.01 2.05 1.34 3.56 3.23 3.56m.1-21.49c-11.24 0-19.71 7.69-19.71 17.88 0 9.95 8.5 17.45 19.77 17.45 11.21 0 19.66-7.69 19.66-17.88 0-10.28-8.11-17.45-19.72-17.45z" fill="#079447"/><path d="m98.61 14.8-1.57 10.58c-1.35-1.57-2.65-2.27-4.43-2.27-2.38 0-3.94 1.73-3.94 4.32 0 2.32 1.4 3.73 3.67 3.73 1.57 0 2.81-.54 4.21-1.78l-1.84 10.37c-2.7.81-3.78.97-5.67.97-7.45 0-12.69-5.18-12.69-12.58 0-8.8 5.94-14.74 14.74-14.74 2.49 0 4.01.27 7.52 1.4z" fill="#fff"/><path d="m91.1 13.4c2.48 0 4 .27 7.51 1.4l-1.57 10.58c-1.35-1.57-2.65-2.27-4.43-2.27-2.38 0-3.94 1.73-3.94 4.32 0 2.32 1.4 3.73 3.67 3.73 1.57 0 2.81-.54 4.21-1.78l-1.84 10.37c-2.7.81-3.78.97-5.67.97-7.45 0-12.69-5.18-12.69-12.58.01-8.8 5.95-14.74 14.75-14.74m0-4c-11.04 0-18.74 7.71-18.74 18.74 0 9.61 7.02 16.58 16.69 16.58 2.37 0 3.83-.25 6.82-1.14 1.45-.43 2.53-1.65 2.79-3.13l1.81-10.21c.06-.28.09-.56.09-.85 0-.56-.12-1.1-.33-1.58.4-.52.67-1.15.77-1.83l1.57-10.58c.29-1.93-.87-3.79-2.73-4.39-3.84-1.26-5.8-1.61-8.74-1.61zm1.59 17.74c0-.01 0-.01 0-.02h.07c-.02.01-.04.01-.07.02z" fill="#079447"/><path d="m132.84 26.84c0 7.94-6.75 13.88-15.66 13.88-9.13 0-15.77-5.67-15.77-13.45 0-7.99 6.7-13.88 15.71-13.88 9.46.01 15.72 5.35 15.72 13.45zm-12.36 0c0-2.05-1.35-3.56-3.13-3.56-1.94 0-3.56 1.84-3.56 4.05 0 2.05 1.35 3.56 3.24 3.56 1.99 0 3.45-1.73 3.45-4.05z" fill="#fff"/><path d="m117.13 13.4c9.45 0 15.71 5.35 15.71 13.45 0 7.94-6.75 13.88-15.66 13.88-9.13 0-15.77-5.67-15.77-13.45.01-8 6.7-13.88 15.72-13.88m-.11 17.49c2 0 3.46-1.73 3.46-4.05 0-2.05-1.35-3.56-3.13-3.56-1.94 0-3.56 1.84-3.56 4.05-.01 2.05 1.34 3.56 3.23 3.56m.11-21.49c-11.24 0-19.71 7.69-19.71 17.88 0 9.95 8.5 17.45 19.77 17.45 11.21 0 19.66-7.69 19.66-17.88-.01-10.28-8.11-17.45-19.72-17.45z" fill="#079447"/><path d="m152.99 34.67c0 3.35-3.19 5.99-7.07 5.99-3.89 0-7.18-2.81-7.18-6.21 0-3.35 3.02-5.83 7.02-5.83 4.04 0 7.23 2.65 7.23 6.05zm3.23-30.67-2.65 21.87h-13.07l2.66-21.87z" fill="#fff"/><path d="m156.22 4-2.65 21.87h-13.07l2.66-21.87zm-10.47 24.62c4.05 0 7.24 2.65 7.24 6.05 0 3.35-3.19 5.99-7.07 5.99-3.89 0-7.18-2.81-7.18-6.21-.01-3.34 3.01-5.83 7.01-5.83m10.47-28.62h-13.07c-2.02 0-3.73 1.51-3.97 3.52l-2.65 21.87c-.12.96.12 1.93.66 2.72-1.56 1.69-2.47 3.88-2.47 6.34 0 5.63 5.02 10.21 11.18 10.21 6.11 0 11.07-4.48 11.07-9.99 0-1.93-.58-3.72-1.6-5.23 1.16-.59 2-1.72 2.16-3.09l2.65-21.87c.14-1.14-.22-2.28-.98-3.13-.74-.86-1.83-1.35-2.98-1.35z" fill="#079447"/></svg>